# xmcd
#
# Track frame offsets:
#	150
#	12477
#	25317
#	37357
#	50222
#	62987
#	75032
#	87217
#	98945
#	110655
#	123295
#	136827
#	147727
#	158180
#	171600
#	182850
#	196710
#	207417
#	219065
#	230292
#	240342
#	250697
#	260992
#	270182
#	281152
#
# Disc length: 3911 seconds
#
# Revision: 4
# Processed by: cddbd v1.5.2PL0 Copyright (c) Steve Scherf et al.
# Submitted via: audiograbber 1.83.01
#
DISCID=700f4519
DTITLE=Various Artist - Fifty Years Of Country Music From Mercury - Disc One -
DTITLE=1945-1957
DYEAR=1900
DGENRE=Oldies
TTITLE0=Sherriff Tom Owen  and His Cowboys - A New Ten Gallon Hat
TTITLE1=Homer Briarhopper - Let's Ride That Plane
TTITLE2=Art Gibson - I'm A Truck Drivin' Man
TTITLE3=Robert Lunn - Yodelin' Blues
TTITLE4=Lonnie Glosson - Lost John
TTITLE5=Sons Of The Soil - Automatic Mama
TTITLE6=Flatt and Scruggs - Foggy Mountain Breakdown
TTITLE7=Mac O'Dell and His Alabama Jubileers - Red Ball Rocket Train
TTITLE8=Claude Boonee - Burglar Man
TTITLE9=Bill Nettles - Hadacol Boogie
TTITLE10=Jerry Byrd - Steelin' The Blues
TTITLE11=Tiny Hill and His Orchestra - Hot Rod Race
TTITLE12=Bill Carlisle and The Carlisles - Too Old To Cut The Mustard
TTITLE13=Eddie Hill - The Hot Guitar
TTITLE14=Roscoe Hankins - I'm Praying For The Day (That Peace Will Come)
TTITLE15=Patti Page - Tennessee Waltz
TTITLE16=Lulu Belle and Scotty - Ay Round The Corner
TTITLE17=Rusty Draper - Gambler's Guitar
TTITLE18=Jimmy Dean and His Texas Wildcats - Big Blue Diamonds
TTITLE19=Roy Moss - You Don't Know My Mind
TTITLE20=Stanley Brothers - Angel Band
TTITLE21=Big Bopper - White Lightnin'
TTITLE22=Eddie Bond and The Stompers - Rockin' Daddy
TTITLE23=Billy Wallace - That's My Reward
TTITLE24=Carl Story - Family Reunion
EXTD=
EXTT0=
EXTT1=
EXTT2=
EXTT3=
EXTT4=
EXTT5=
EXTT6=
EXTT7=
EXTT8=
EXTT9=
EXTT10=
EXTT11=
EXTT12=
EXTT13=
EXTT14=
EXTT15=
EXTT16=
EXTT17=
EXTT18=
EXTT19=
EXTT20=
EXTT21=
EXTT22=
EXTT23=
EXTT24=
PLAYORDER=
